<?xml version="1.0" standalone="no"?><!DOCTYPE svg PUBLIC "-//W3C//DTD SVG 1.1//EN" "http://www.w3.org/Graphics/SVG/1.1/DTD/svg11.dtd"><svg t="1499683479894" class="icon" style="" viewBox="0 0 1024 1024" version="1.1" xmlns="http://www.w3.org/2000/svg" p-id="13752" xmlns:xlink="http://www.w3.org/1999/xlink" width="200" height="200"><defs><style type="text/css"></style></defs><path d="M613.646 406.892v-42.5h-129.76v68.655h106.168c16.852 1.098 24.699-7.612 23.592-26.155z" fill="#d81e06" p-id="13753"></path><path d="M842.923 228.693c-6.827 0-95.574-3.413-184.32-40.96-88.747-37.546-146.774-78.506-157.014-81.92l-3.413-3.413-3.413 3.413c-3.414 3.414-61.44 44.374-157.014 81.92-88.746 37.547-174.08 37.547-184.32 40.96h-3.413v351.574c0 78.506 47.787 146.773 129.707 225.28C354.816 873.813 440.149 921.6 498.176 921.6c58.027 0 143.36-47.787 218.453-116.053 81.92-78.507 129.707-146.774 129.707-225.28V228.693h-3.413zM387.829 691.319h-50.556V457.566c-6.741 5.466-19.669 11.442-38.76 17.981 1.106 0 0 0.562-3.37 1.635v-31.058c38.18-23.958 62.353-66.458 72.463-127.502h50.556c-7.873 35.962-17.984 65.947-30.333 89.905v282.792z m303.337-153.656H637.24c5.608 41.428 23.013 75.756 52.241 102.982v31.058c-59.562-26.153-92.134-70.825-97.742-134.04h-18.537v153.656h-52.241V537.663h-18.538c-5.635 64.313-38.207 108.984-97.742 134.04v-31.058c30.333-27.227 47.739-61.555 52.241-102.982h-53.926v-34.327h117.965v-35.962H433.33v-137.31h230.874v80.097c1.105 39.231-18.537 58.311-58.982 57.212h-32.019v35.962h117.964v34.328z" fill="#d81e06" p-id="13754"></path></svg>