<?xml version="1.0" standalone="no"?><!DOCTYPE svg PUBLIC "-//W3C//DTD SVG 1.1//EN" "http://www.w3.org/Graphics/SVG/1.1/DTD/svg11.dtd"><svg t="1499683441441" class="icon" style="" viewBox="0 0 1024 1024" version="1.1" xmlns="http://www.w3.org/2000/svg" p-id="13020" xmlns:xlink="http://www.w3.org/1999/xlink" width="200" height="200"><defs><style type="text/css"></style></defs><path d="M904.943627 836.658473l-84.092496-148.047165V390.298404c0-114.341902-85.927086-238.027416-211.1912-283.380192C603.558852 46.291405 563.069872 2.133244 509.99475 2.133244c-52.947127 0-93.606766 44.15816-99.622516 104.742303C285.19345 152.228324 199.266364 275.956502 199.266364 390.255739v298.398234l-88.23099 155.300196a33.065289 33.065289 0 0 0 28.71347 49.363276h209.953918A164.003833 164.003833 0 0 0 509.99475 1023.957335a163.918503 163.918503 0 0 0 160.334653-130.63989h211.44719a32.979959 32.979959 0 0 0 23.209699-56.658972zM510.037415 68.391817c11.946169 0 21.545769 9.044956 27.732178 22.527061-9.172951-0.938628-18.089913-3.071872-27.732178-3.071872-9.5996 0-18.516562 2.133244-27.732178 3.071872 6.229074-13.482105 15.828674-22.527061 27.732178-22.527061z m0 889.392275c-41.982251 0-77.095454-27.006875-90.705554-64.466647h181.453773c-13.652764 37.459773-48.637973 64.423982-90.748219 64.423982z m-313.416274-130.55456l64.466647-113.488605a32.595975 32.595975 0 0 0 4.479813-16.425982V390.255739c0-111.52602 104.528978-236.23549 244.469814-236.23549 139.983501 0 244.640473 124.70947 244.640473 236.23549v307.059206c0 5.75976 1.535936 11.51952 4.309154 16.383318l64.551977 113.488604H196.578476z" p-id="13021" fill="#d81e06"></path></svg>