<?xml version="1.0" standalone="no"?><!DOCTYPE svg PUBLIC "-//W3C//DTD SVG 1.1//EN" "http://www.w3.org/Graphics/SVG/1.1/DTD/svg11.dtd"><svg t="1499683570076" class="icon" style="" viewBox="0 0 1024 1024" version="1.1" xmlns="http://www.w3.org/2000/svg" p-id="17460" xmlns:xlink="http://www.w3.org/1999/xlink" width="200" height="200"><defs><style type="text/css"></style></defs><path d="M867.141818 161.605818c-8.471273 0.325818-16.756364 0.418909-24.948363 0.418909-213.783273 0-307.991273-92.625455-308.782546-93.463272L512.093091 46.545455l-21.457455 21.969454c-0.837818 1.024-93.184 93.509818-308.782545 93.509818-8.145455 0-16.430545-0.093091-24.948364-0.418909l-29.975272-0.977454v419.933091c0 109.940364 38.818909 270.382545 374.551272 393.076363L512 977.454545l10.565818-3.816727c335.778909-122.740364 374.551273-283.182545 374.551273-393.122909V160.628364l-29.975273 0.977454z m-388.096 527.685818l-193.442909-172.404363 51.339636-41.797818 102.865455 76.288s141.963636-147.735273 279.179636-216.808728l19.595637 22.155637s-171.380364 142.894545-259.537455 332.567272" p-id="17461" fill="#d81e06"></path></svg>