<?xml version="1.0" standalone="no"?><!DOCTYPE svg PUBLIC "-//W3C//DTD SVG 1.1//EN" "http://www.w3.org/Graphics/SVG/1.1/DTD/svg11.dtd"><svg t="1499736220471" class="icon" style="" viewBox="0 0 1024 1024" version="1.1" xmlns="http://www.w3.org/2000/svg" p-id="41298" xmlns:xlink="http://www.w3.org/1999/xlink" width="200" height="200"><defs><style type="text/css"></style></defs><path d="M511.967487 27.870458C235.072772 27.870458 9.862132 220.922599 9.862132 458.188161c0 205.067325 167.381698 380.165328 400.182206 421.156396l72.741353 101.800325c6.715642 9.396119 17.600113 14.984661 29.221534 14.984661 11.570846 0 22.455316-5.592154 29.210696-14.984661l72.698003-101.876187c232.800508-40.911592 400.221943-215.922896 400.221943-421.080533C1014.058393 220.886474 788.891103 27.870458 511.967487 27.870458M585.467466 805.324377c-9.284132 1.358301-17.650688 6.469992-23.073054 14.142948l-50.426924 70.570239-50.437762-70.570239c-5.501842-7.633218-13.868398-12.741297-23.065829-14.142948-198.167445-29.579172-341.952275-172.804064-341.952275-340.507274 0-190.848515 186.347336-346.168066 415.455867-346.168066 229.097693 0 415.445029 155.319551 415.445029 346.168066C927.412517 632.639526 783.587949 775.745206 585.467466 805.324377" p-id="41299"></path><path d="M512.007225 494.078374 511.967487 494.078374 512.007225 529.964976Z" p-id="41300"></path><path d="M512.007225 494.078374 511.920525 494.078374 511.920525 529.964976Z" p-id="41301"></path><path d="M189.226501 471.814521c0 18.770564 7.730756 37.436365 21.00309 50.72315 13.27956 13.272335 31.945361 21.006703 50.726762 21.006703 18.774176 0 37.44359-7.737981 50.72315-21.006703 13.27956-13.283172 21.013928-31.952586 21.013928-50.72315 0-18.785014-7.734368-37.450815-21.013928-50.730375-13.27956-13.268722-31.948973-21.010315-50.72315-21.010315-18.781401 0-37.450815 7.741593-50.726762 21.010315C196.957257 434.367318 189.226501 453.033119 189.226501 471.814521" p-id="41302"></path><path d="M691.281281 471.814521c0 18.770564 7.730756 37.436365 20.999478 50.72315 13.27956 13.272335 31.945361 21.006703 50.730375 21.006703 18.774176 0 37.439977-7.737981 50.72315-21.006703 13.283172-13.283172 21.010315-31.952586 21.010315-50.72315 0-18.785014-7.730756-37.450815-21.010315-50.730375-13.283172-13.268722-31.948973-21.010315-50.72315-21.010315-18.785014 0-37.450815 7.741593-50.730375 21.010315C699.012037 434.367318 691.281281 453.033119 691.281281 471.814521" p-id="41303"></path><path d="M440.234022 471.814521c0 18.770564 7.727143 37.436365 21.00309 50.72315 13.283172 13.272335 31.945361 21.006703 50.730375 21.006703 18.774176 0 37.439977-7.737981 50.72315-21.006703 13.283172-13.283172 21.010315-31.952586 21.010315-50.72315 0-18.785014-7.730756-37.450815-21.010315-50.730375-13.283172-13.268722-31.948973-21.010315-50.72315-21.010315-18.785014 0-37.447202 7.741593-50.730375 21.010315C447.961166 434.367318 440.234022 453.033119 440.234022 471.814521" p-id="41304"></path><path d="M511.967487 494.078374 511.967487 494.078374 511.967487 529.964976Z" p-id="41305"></path></svg>