<?xml version="1.0" standalone="no"?><!DOCTYPE svg PUBLIC "-//W3C//DTD SVG 1.1//EN" "http://www.w3.org/Graphics/SVG/1.1/DTD/svg11.dtd"><svg t="1499684711232" class="icon" style="" viewBox="0 0 1024 1024" version="1.1" xmlns="http://www.w3.org/2000/svg" p-id="39023" xmlns:xlink="http://www.w3.org/1999/xlink" width="200" height="200"><defs><style type="text/css"></style></defs><path d="M512 64.240093c-247.292176 0-447.76093 200.467731-447.76093 447.759907s200.468754 447.759907 447.76093 447.759907 447.759907-200.467731 447.759907-447.759907S759.293199 64.240093 512 64.240093z m0.00307 859.381755c-98.807377 0-189.221596-35.601846-259.396865-94.535073 10.168594-4.558829 21.348214-9.129938 33.862225-13.688767 79.989799-29.145807 113.963565-54.878888 125.832894-95.724155-130.516566-26.937512-143.786801-103.893208-143.786801-103.893208s67.63133-44.092217 67.63133-157.207462c0-113.110127 21.262256-216.646202 175.85517-216.646201 154.608264 0 175.840844 103.536075 175.840844 216.646201 0 113.116267 67.645656 157.207461 67.645656 157.207462s-13.273305 76.958766-143.798056 103.899348c11.877515 40.839127 45.862537 66.572208 125.827776 95.718015 12.518105 4.558829 23.704888 9.133008 33.872459 13.694907-70.167083 58.927087-160.581302 94.528933-259.386632 94.528933z" fill="#2c2c2c" p-id="39024"></path></svg>