<?xml version="1.0" standalone="no"?><!DOCTYPE svg PUBLIC "-//W3C//DTD SVG 1.1//EN" "http://www.w3.org/Graphics/SVG/1.1/DTD/svg11.dtd"><svg t="1499683602742" class="icon" style="" viewBox="0 0 1026 1024" version="1.1" xmlns="http://www.w3.org/2000/svg" p-id="18150" xmlns:xlink="http://www.w3.org/1999/xlink" width="200.390625" height="200"><defs><style type="text/css"></style></defs><path d="M601.216 172.8L392.832 376.96l-15.296 14.976v448.384l-86.464-60.48c-9.28-6.528-19.904-26.88-19.904-38.208V393.472l-13.44-14.592L68.416 172.8h532.8m23.04-51.072H54.208c-56.448 0-71.104 33.6-32.96 75.136L220.16 413.376v328.256c0 28.032 18.688 63.936 41.664 80.064l104.192 72.896c11.264 7.872 21.824 11.584 30.976 11.584 18.816 0 31.552-15.872 31.552-44.352V413.376l224.896-220.288c40.128-39.296 27.2-71.36-29.184-71.36zM615.68 427.968c0-14.08 11.328-25.536 25.536-25.536h357.248a25.472 25.472 0 1 1 0 51.072h-357.248a25.472 25.472 0 0 1-25.536-25.536zM615.68 606.592c0-14.08 11.328-25.536 25.536-25.536h357.248a25.472 25.472 0 1 1 0 51.072h-357.248a25.472 25.472 0 0 1-25.536-25.536zM615.68 785.216c0-14.08 11.328-25.536 25.536-25.536h357.248a25.472 25.472 0 1 1 0 51.072h-357.248a25.472 25.472 0 0 1-25.536-25.536z" p-id="18151" fill="#d81e06"></path></svg>