<?xml version="1.0" standalone="no"?><!DOCTYPE svg PUBLIC "-//W3C//DTD SVG 1.1//EN" "http://www.w3.org/Graphics/SVG/1.1/DTD/svg11.dtd"><svg t="1499682742447" class="icon" style="" viewBox="0 0 1024 1024" version="1.1" xmlns="http://www.w3.org/2000/svg" p-id="10145" xmlns:xlink="http://www.w3.org/1999/xlink" width="200" height="200"><defs><style type="text/css"></style></defs><path d="M534.08 68.8C515.776 60.352 494.08 63.232 478.656 76.16L227.072 287.872 74.944 287.872c-28.736 0-52.096 23.36-52.096 52.096l0 344c0 28.736 23.36 52.096 52.096 52.096l75.84 0 0-64L86.912 672.064 86.912 351.872l163.584 0 249.792-210.24 0 740.608-240.896-202.752-41.216 48.96 260.48 219.264C488.064 955.648 499.968 960 512.192 960c7.68 0 15.04-1.664 21.952-4.864 18.304-8.512 30.144-27.008 30.144-47.232L564.288 116.032C564.224 95.872 552.448 77.376 534.08 68.8z" p-id="10146"></path><path d="M689.984 255.232l-41.28 48.96c62.336 52.544 98.112 129.472 98.112 210.944 0 78.528-33.664 153.6-92.288 205.888l42.56 47.808c72.256-64.448 113.728-156.928 113.728-253.696C810.816 414.72 766.784 320 689.984 255.232z" p-id="10147"></path><path d="M798.016 157.504l-32.512 55.168c105.792 62.272 171.584 177.216 171.584 299.84 0 121.984-65.216 236.544-170.176 299.008l32.704 54.976c124.288-73.856 201.472-209.536 201.472-353.984C1001.088 367.296 923.264 231.296 798.016 157.504z" p-id="10148"></path></svg>