<?xml version="1.0" standalone="no"?><!DOCTYPE svg PUBLIC "-//W3C//DTD SVG 1.1//EN" "http://www.w3.org/Graphics/SVG/1.1/DTD/svg11.dtd"><svg t="1499736183046" class="icon" style="" viewBox="0 0 1024 1024" version="1.1" xmlns="http://www.w3.org/2000/svg" p-id="40638" xmlns:xlink="http://www.w3.org/1999/xlink" width="200" height="200"><defs><style type="text/css"></style></defs><path d="M882.777093 399.265426H577.353962c18.446118-29.601178 32.803103-63.308885 42.125423-99.364055 12.848633-49.696866 15.355733-100.385315 7.250124-146.585543-4.90573-27.960819-20.948101-55.552224-44.012399-75.699076-23.350824-20.396539-51.424206-31.17707-77.006862-29.571503-23.295566 1.460258-43.191708 12.637832-57.536414 32.32522-14.667048 20.129456-22.991644 48.626487-24.743544 84.699054-3.654226 75.28566-45.738717 137.411603-80.398098 176.272679-30.546713 34.248012-60.945047 57.082066-72.39789 65.183582H139.746276c-17.144472 0-31.092136 15.149025-31.092136 33.769104v501.322823c0 11.30344 9.162684 20.466124 20.466124 20.466124s20.466124-9.162684 20.466124-20.466124V447.458031h127.331014l0.081864 0.002047c0.63138 0 1.263783-0.039909 1.895164-0.099261 0.128937-0.01228 0.25685-0.026606 0.385786-0.040932a20.461007 20.461007 0 0 0 1.657756-0.252757c0.072655-0.014326 0.147356-0.023536 0.220011-0.038885a20.322861 20.322861 0 0 0 1.749853-0.450255c0.161682-0.049119 0.320295-0.105401 0.479931-0.158612 0.409322-0.135076 0.814552-0.283456 1.217734-0.445139 0.191358-0.076748 0.381693-0.152473 0.568959-0.234337a21.049409 21.049409 0 0 0 1.264806-0.608867c0.137123-0.071631 0.276293-0.138146 0.411369-0.212848 0.416486-0.229221 0.828878-0.472767 1.234108-0.734733 1.719154-1.110287 42.593074-27.736715 84.70417-74.710563 24.87862-27.751041 45.085848-56.941873 60.059888-86.761016 18.990516-37.815257 29.577642-76.728522 31.467688-115.658159 1.37123-28.246321 8.904811-75.960019 43.955095-78.157058 29.388331-1.827625 70.800509 29.638017 78.141708 71.492264 14.595416 83.194794-11.386328 182.160783-64.652486 246.261707l-0.017396 0.023536a20.788465 20.788465 0 0 0-1.232061 1.644453c-0.053212 0.078795-0.094144 0.161682-0.146332 0.240477-0.315178 0.481977-0.618077 0.972141-0.892323 1.481747-0.121773 0.225127-0.218988 0.458441-0.331552 0.687662-0.182149 0.37146-0.370437 0.73985-0.531096 1.12359-0.113587 0.273223-0.202615 0.553609-0.303922 0.829902-0.128937 0.350994-0.26606 0.696872-0.376576 1.056052-0.095167 0.313132-0.162706 0.630357-0.243547 0.946558-0.083911 0.331551-0.181125 0.659009-0.248664 0.9967-0.084934 0.421602-0.1361 0.848321-0.194428 1.272993-0.032746 0.239454-0.081864 0.472767-0.106424 0.714268a20.48659 20.48659 0 0 0-0.10233 2.018983l-0.002047 0.045025c0 0.236384 0.027629 0.464581 0.034793 0.698918 0.014326 0.421602 0.023536 0.843204 0.063445 1.26276 0.035816 0.379647 0.101307 0.750083 0.158612 1.124614 0.042979 0.280386 0.073678 0.562818 0.128937 0.842181 0.078795 0.403183 0.184195 0.796132 0.285502 1.190105 0.064468 0.248663 0.118704 0.499373 0.191358 0.744967 0.113587 0.378623 0.249687 0.74599 0.38374 1.115404 0.094144 0.25992 0.180102 0.521886 0.284479 0.777712 0.1361 0.331551 0.292666 0.651846 0.445138 0.975211 0.134053 0.285502 0.261966 0.572028 0.410346 0.851391 0.150426 0.282433 0.318248 0.553609 0.480954 0.827855 0.178055 0.301875 0.350994 0.604774 0.546446 0.898462 0.169869 0.254803 0.356111 0.496304 0.537235 0.742921 0.211824 0.289596 0.416486 0.582261 0.645707 0.862647 0.220011 0.270153 0.459464 0.522909 0.693801 0.780782 0.210801 0.233314 0.411369 0.473791 0.635473 0.698919 0.372483 0.376577 0.768503 0.729617 1.169639 1.076518 0.100284 0.086981 0.189312 0.183172 0.291643 0.268106l0.020466 0.01535c0.527003 0.437975 1.076518 0.849344 1.646499 1.233084 0.089028 0.060375 0.183172 0.107447 0.273223 0.165775 0.471744 0.306992 0.949628 0.603751 1.446955 0.870834 0.242524 0.130983 0.494257 0.236384 0.740874 0.357134 0.354064 0.172939 0.703011 0.352017 1.067308 0.50449 0.298805 0.124843 0.605797 0.222057 0.908696 0.332574 0.324388 0.11768 0.642636 0.245593 0.974188 0.346901 0.354064 0.10847 0.714268 0.187265 1.072425 0.276293 0.289596 0.071631 0.573051 0.157589 0.867763 0.21694 0.514723 0.103354 1.032516 0.172939 1.551332 0.236384 0.146333 0.017396 0.287549 0.050142 0.433882 0.064468 0.680499 0.068562 1.362021 0.102331 2.043543 0.103354l0.031722 0.002047h345.275791c5.891174 0 10.972912 4.40431 12.063757 10.031471L754.942613 921.151587H412.055219c-11.30344 0-20.466124 9.162684-20.466124 20.466124s9.162684 20.466124 20.466124 20.466124h358.157169a20.466124 20.466124 0 0 0 19.618826-14.638395l145.309481-489.140363c0.561795-1.892093 0.847298-3.854794 0.847297-5.827729 0.001023-29.341259-23.86964-53.211922-53.210899-53.211922z" fill="" p-id="40639"></path></svg>