<?xml version="1.0" standalone="no"?><!DOCTYPE svg PUBLIC "-//W3C//DTD SVG 1.1//EN" "http://www.w3.org/Graphics/SVG/1.1/DTD/svg11.dtd"><svg t="1499684666024" class="icon" style="" viewBox="0 0 1024 1024" version="1.1" xmlns="http://www.w3.org/2000/svg" p-id="38195" xmlns:xlink="http://www.w3.org/1999/xlink" width="200" height="200"><defs><style type="text/css"></style></defs><path d="M511.42439 956.007443c-246.499114 0-446.356954-199.930495-446.356954-446.356954 0-246.571768 199.858864-446.357977 446.356954-446.357977 246.49809 0 446.357977 199.786209 446.357977 446.357977C957.783391 756.076948 757.922481 956.007443 511.42439 956.007443zM792.357757 748.083903c-16.636912-37.196157-97.857748-61.752436-151.83715-84.853573-53.905724-23.103184-46.567595-37.124526-48.530296-56.230676-0.216941-2.76088-0.434905-5.812379-0.50756-8.718569 16.200984-15.401782 29.495778-35.453467 38.35761-58.265008 0 0 0.509606-1.306762 0.655939-1.598404 2.106987-5.52176 3.922333-11.18883 5.448082-17.000186 12.422937-2.470261 19.615757-15.474436 22.375613-27.606755 2.758834-4.795213 8.571213-16.854876 7.264451-30.512944-1.74269-17.5804-9.080819-25.717731-17.289782-29.205159 0-0.145309 0-0.435928 0-0.654916 5.158487-16.927531 10.026354-34.362622 10.605545-61.606103 0.509606-21.649066-6.100952-38.649252-18.234293-56.739259-1.671059-2.615571-60.225663-78.316693-60.587913-81.150228-1.817392 3.849678 0.653893 20.487613-10.825556 17.000186 1.453095 0.435928 7.40976-9.080819 1.671059-20.269649-2.759857 10.025331-9.734712 16.128329-20.849864 18.308995 4.939499-4.358261 8.208962-9.736758 9.881045-16.129352-5.305843 5.812379-12.279674 7.992021-20.850887 6.611581-0.218988-5.594415 1.815345-10.680247 6.02932-15.111163-6.392594 4.285606-13.58439 6.610558-21.576411 7.046486-1.743714-6.393617-1.235131-12.785188 1.38044-19.033495-7.191796 8.573259-16.127306 14.747889-26.880207 18.671245-4.068665-5.594415-4.068665-11.841699 0-18.961864-5.013177 8.42795-11.259438 15.98302-18.742876 22.520923-2.252297-5.085832-3.704368-10.31595-4.213975-15.83771-19.761066 34.001395-56.374962 59.355853-85.435835 85.872786-36.832883 41.119513-29.567409 84.709287-16.564257 130.188084-7.628748 3.778046-14.239306 11.913331-15.83771 28.478612-1.306762 13.658068 4.504594 25.717731 7.264451 30.512944 2.76088 12.349259 10.17064 25.572422 22.957875 27.751041 1.598404 5.812379 3.413749 11.478426 5.52176 17.000186 0.146333 0.436952 0.290619 0.727571 0.435928 1.089821l0.217964 0.508583c9.081843 23.24747 22.73991 43.589774 39.376823 59.135842-0.072655 2.614547-0.217964 5.230118-0.508583 7.700379-1.961678 19.034519 3.778046 33.127492-50.201355 56.230676-53.979402 23.101137-135.201262 47.657416-151.83715 84.853573-16.636912 37.196157-9.953699 59.137889-9.953699 59.137889l581.777203 0C802.313503 807.221792 808.99774 785.28006 792.357757 748.083903z" p-id="38196"></path></svg>