<?xml version="1.0" standalone="no"?><!DOCTYPE svg PUBLIC "-//W3C//DTD SVG 1.1//EN" "http://www.w3.org/Graphics/SVG/1.1/DTD/svg11.dtd"><svg t="1499684274536" class="icon" style="" viewBox="0 0 1024 1024" version="1.1" xmlns="http://www.w3.org/2000/svg" p-id="30374" xmlns:xlink="http://www.w3.org/1999/xlink" width="200" height="200"><defs><style type="text/css"></style></defs><path d="M512 1024C229.248 1024 0 794.656 0 512 0 229.152 229.248 0 512 0s512 229.152 512 512c0 282.656-229.248 512-512 512z m329.792-252.352c-19.52-43.616-114.688-72.384-177.984-99.456-63.168-27.104-54.56-43.52-56.864-65.92a194.4 194.4 0 0 1-0.608-10.24 188.448 188.448 0 0 0 44.96-68.288c3.232-8.32 5.376-14.976 7.168-21.76 14.56-2.912 22.976-18.176 26.24-32.384 3.2-5.632 10.016-19.776 8.512-35.776-2.048-20.608-10.656-30.144-20.288-34.24 6.048-20.608 11.744-41.024 12.448-72.96 0.576-25.376-7.168-45.312-21.376-66.496-1.952-3.072-70.592-91.84-71.04-95.136-2.112 4.512 0.768 24-12.672 19.936 1.696 0.512 8.672-10.656 1.952-23.776-3.232 11.744-11.392 18.912-24.448 21.44 5.792-5.088 9.632-11.392 11.584-18.88-6.208 6.816-14.4 9.376-24.448 7.744a23.776 23.776 0 0 1 7.072-17.696 49.344 49.344 0 0 1-25.28 8.256 33.536 33.536 0 0 1 1.6-22.304c-8.416 10.048-18.88 17.28-31.488 21.888-4.8-6.56-4.8-13.888 0-22.24a108.64 108.64 0 0 1-21.952 26.4 58.88 58.88 0 0 1-4.96-18.56c-23.168 39.84-66.08 69.568-100.16 100.64-43.136 48.192-34.624 99.296-19.392 152.608-8.96 4.416-16.704 13.952-18.56 33.376-1.536 16 5.28 30.144 8.512 35.776 3.2 14.464 11.904 29.952 26.88 32.512 1.92 6.816 4.032 13.44 6.496 19.936 11.424 29.12 27.424 52.96 46.912 71.2a99.232 99.232 0 0 1-0.576 9.024c-2.304 22.304 4.416 38.816-58.88 65.92-63.232 27.072-158.432 55.84-177.92 99.456-19.52 43.584-11.68 69.312-11.68 69.312s119.616 148.128 340.96 148.128 340.96-148.16 340.96-148.16 7.84-25.696-11.68-69.28z" p-id="30375" fill="#d81e06"></path></svg>