<?xml version="1.0" standalone="no"?><!DOCTYPE svg PUBLIC "-//W3C//DTD SVG 1.1//EN" "http://www.w3.org/Graphics/SVG/1.1/DTD/svg11.dtd"><svg t="1499684772333" class="icon" style="" viewBox="0 0 1024 1024" version="1.1" xmlns="http://www.w3.org/2000/svg" p-id="39805" xmlns:xlink="http://www.w3.org/1999/xlink" width="200" height="200"><defs><style type="text/css"></style></defs><path d="M904.543573 274.727253a7.483733 7.483733 0 0 0-7.14752-5.266773H572.701013v-49.370453a7.48544 7.48544 0 0 0-7.48544-7.482027h-2.080426V119.589547a7.48544 7.48544 0 0 0-7.48544-7.483734h-87.304534a7.48544 7.48544 0 0 0-7.482026 7.483734v93.018453h-2.077014a7.48544 7.48544 0 0 0-7.487146 7.482027v49.370453H126.603947a7.482027 7.482027 0 0 0-4.232534 13.651627l66.597547 45.7216v13.31712a7.482027 7.482027 0 0 0 6.403413 7.405226l204.602027 29.759147v379.270827h-27.661653a7.478613 7.478613 0 0 0-7.28576 5.778773l-32.43008 138.33728a7.492267 7.492267 0 0 0 7.287466 9.193813h344.236374a7.497387 7.497387 0 0 0 5.864106-2.834773 7.476907 7.476907 0 0 0 1.421654-6.35904l-32.426667-138.33728a7.49056 7.49056 0 0 0-7.284053-5.778773h-27.665067v-24.927574a7.47008 7.47008 0 0 0 0-5.172906v-349.166934l204.602027-29.760853a7.482027 7.482027 0 0 0 6.406826-7.405227v-13.31712l66.597547-45.7216a7.492267 7.492267 0 0 0 2.906453-8.38656z m-346.81344-47.151786v37.00224h-91.461973v-37.00224h91.461973z m-81.89952-100.502187h72.342187v85.536427h-72.342187V127.07328z m133.229227 245.768533v339.688107L414.94016 518.41024V284.429653h194.11968v88.41216zM150.725973 284.427947h38.242987v26.251946l-38.242987-26.251946z m53.20704 51.249493v-51.247787H399.9744v79.76448l-196.041387-28.516693z m470.74816 561.24928H349.320533l28.919467-123.369813h267.516587l28.924586 123.369813z m-259.741013-138.33728v-219.016533l194.11968 194.11968v24.896853H414.94016z m405.128533-422.912l-196.037973 28.516693v-79.76448h196.037973v51.247787z m14.967467-24.999253v-26.251947h38.239573l-38.239573 26.251947z" fill="" p-id="39806"></path></svg>