<?xml version="1.0" standalone="no"?><!DOCTYPE svg PUBLIC "-//W3C//DTD SVG 1.1//EN" "http://www.w3.org/Graphics/SVG/1.1/DTD/svg11.dtd"><svg t="1499827659024" class="icon" style="" viewBox="0 0 1025 1024" version="1.1" xmlns="http://www.w3.org/2000/svg" p-id="42673" xmlns:xlink="http://www.w3.org/1999/xlink" width="200.1953125" height="200"><defs><style type="text/css"></style></defs><path d="M800.29696 795.99616c0 15.99488-12.9024 28.95872-28.79488 28.95872s-28.81536-12.96384-28.81536-28.95872l-0.02048-0.34816-0.79872 0c-13.66016-112.20992-106.94656-199.4752-221.40928-203.12064-2.47808 0.08192-4.89472 0.34816-7.39328 0.34816-2.47808 0-4.89472-0.26624-7.35232-0.34816-114.44224 3.64544-207.74912 90.91072-221.40928 203.12064l-0.69632 0 0.02048 0.34816c0 15.99488-12.86144 28.95872-28.79488 28.95872-15.89248 0-28.79488-12.96384-28.79488-28.95872l-0.28672-2.68288c0-3.7888 0.8192-7.35232 2.10944-10.67008 14.41792-101.376 80.75264-185.9584 171.33568-225.13664-53.18656-36.57728-88.12544-97.9968-88.12544-167.66976 0-112.14848 90.46016-203.0592 202.01472-203.0592s202.01472 90.91072 202.01472 203.0592c0 69.65248-34.89792 131.05152-88.064 167.6288 91.4432 39.54688 158.16704 125.25568 171.78624 227.9424 0.7168 2.53952 1.2288 5.14048 1.2288 7.92576L800.29696 795.99616 800.29696 795.99616 800.29696 795.99616 800.29696 795.99616zM657.32608 389.89824c0-80.09728-64.6144-145.05984-144.30208-145.05984-79.68768 0-144.2816 64.94208-144.2816 145.05984 0 80.11776 64.6144 145.03936 144.2816 145.03936C592.6912 534.9376 657.32608 470.016 657.32608 389.89824L657.32608 389.89824 657.32608 389.89824 657.32608 389.89824zM1024.59392 512c0-282.76736-229.376-512-512.3072-512C229.376 0 0 229.23264 0 512 0 756.46976 171.43808 960.9216 400.71168 1011.79392 431.4112 1019.43296 468.21376 1024 512.3072 1024c44.07296 0 80.87552-4.56704 111.57504-12.20608C853.15584 960.9216 1024.59392 756.44928 1024.59392 512L1024.59392 512 1024.59392 512 1024.59392 512zM784.15872 861.61408c0-0.43008 0-0.63488 0-0.63488-70.36928 54.45632-157.34784 88.61696-252.29312 92.75392-0.26624 0.02048-0.49152 0.04096-0.75776 0.04096-2.88768 0.12288-5.77536 0.22528-8.68352 0.26624-0.45056 0.02048-0.9216 0.02048-1.35168 0.04096-2.92864 0.06144-5.8368 0.1024-8.76544 0.1024s-5.8368-0.04096-8.76544-0.1024c-0.45056-0.02048-0.90112-0.02048-1.35168-0.04096-2.90816-0.04096-5.79584-0.14336-8.704-0.26624-0.22528 0-0.47104-0.02048-0.7168-0.02048-94.96576-4.15744-181.94432-38.31808-252.29312-92.7744 0 0 0 0.24576 0 0.63488C135.72096 780.75904 68.32128 654.2336 68.32128 512c0-244.20352 198.7584-442.1632 443.98592-442.1632 239.45216 0 434.64704 188.78464 443.65824 425.08288 0.22528 5.65248 0.32768 11.3664 0.32768 17.08032C956.27264 654.21312 888.85248 780.73856 784.15872 861.61408L784.15872 861.61408 784.15872 861.61408 784.15872 861.61408z" p-id="42674" fill="#d81e06"></path></svg>