<?xml version="1.0" standalone="no"?><!DOCTYPE svg PUBLIC "-//W3C//DTD SVG 1.1//EN" "http://www.w3.org/Graphics/SVG/1.1/DTD/svg11.dtd"><svg t="1499686715300" class="icon" style="" viewBox="0 0 1024 1024" version="1.1" xmlns="http://www.w3.org/2000/svg" p-id="40476" xmlns:xlink="http://www.w3.org/1999/xlink" width="200" height="200"><defs><style type="text/css"></style></defs><path d="M784.2 946.6H189.5C120.4 946.6 64 884 64 807V240.6c0-77 56.4-139.7 125.5-139.7h470.8c14.6 0 26.4 11.8 26.4 26.4 0 14.6-11.9 26.4-26.4 26.4H189.5c-40.1 0-72.7 39-72.7 86.8v566.3c0 47.9 32.6 86.8 72.7 86.8h594.6c40.1 0 72.7-39 72.7-86.8V382.2c0-14.7 11.9-26.4 26.4-26.4s26.4 11.8 26.4 26.4V807c0.1 77-56.1 139.6-125.4 139.6z" p-id="40477" fill="#d81e06"></path><path d="M357.4 706.1c-6.8 0-13.6-2.7-18.7-7.7-8.1-8.1-10-20.3-5-30.5l74.7-149.5c1.2-2.5 3-4.9 5-6.8l411.2-411.1c30.9-30.9 81.1-30.9 112.1 0s31 81.2 0 112.1l-411.2 411c-2.1 2.1-4.3 3.7-6.9 5l-149.5 74.7c-3.6 1.9-7.7 2.8-11.7 2.8z m96.4-160.2l-37.4 74.7 74.7-37.4 408.1-408.1c10.3-10.3 10.3-27 0-37.4-10.3-10.3-27-10.3-37.4 0l-408 408.2z m53.1 59h0.3-0.3z" p-id="40478" fill="#d81e06"></path><path d="M619 708.8H354.7c-14.6 0-26.4-11.9-26.4-26.4 0-14.7 11.9-26.4 26.4-26.4H619c14.6 0 26.4 11.9 26.4 26.4 0 14.5-11.8 26.4-26.4 26.4z" p-id="40479" fill="#d81e06"></path></svg>