<?xml version="1.0" standalone="no"?><!DOCTYPE svg PUBLIC "-//W3C//DTD SVG 1.1//EN" "http://www.w3.org/Graphics/SVG/1.1/DTD/svg11.dtd"><svg t="1499684397983" class="icon" style="" viewBox="0 0 1024 1024" version="1.1" xmlns="http://www.w3.org/2000/svg" p-id="31312" xmlns:xlink="http://www.w3.org/1999/xlink" width="200" height="200"><defs><style type="text/css"></style></defs><path d="M606.4 890c-38.4 0-71.7-13.1-93.9-35.8-22.2 22.7-55.5 35.8-93.9 35.8-62.8 0-114.8-47.3-122.2-108.2-60.9-7.4-108.2-59.4-108.2-122.2 0-6.1 0.5-12.3 1.4-18.3C139.7 620 106 570.8 106 514.7c0-31 10.7-60.8 29.8-84.9-5.5-6.5-11.9-13.5-18.1-20.4-34.6-38.3-67.3-74.5-51.7-109.5 14.1-31.7 56.8-31.7 70.8-31.7 20.8 0 42.5 5.8 65.5 17.7 30.3-69.2 111.1-111.3 185.9-94.1C419 155.3 464 134 512.5 134c48.4 0 93.5 21.3 124.2 57.8 12-2.7 24.3-4.2 36.8-4.2 66.6 0 124.1 39.4 149.4 98.2 22.9-11.8 44.5-17.6 65.3-17.6 13.8 0 55.7 0 69.8 31.4 15.6 34.9-16.9 71.4-51.3 110-6.1 6.8-12.3 13.7-17.6 20.2 19.2 24.1 29.8 53.9 29.8 85 0 56.2-33.7 105.3-83.5 126.6 0.9 6 1.4 12.1 1.4 18.3 0 62.8-47.3 114.8-108.2 122.2-7.4 60.8-59.4 108.1-122.2 108.1z m-93.9-116.2c6.8 0 23.6 2.5 32.4 25.2 7.8 20.5 30.8 32.7 61.6 32.7 35.7 0 64.8-29.1 64.8-64.8 0-3.5-0.6-6.8-1.1-10.1-1.6-9.2 1.4-18.6 8-25.3 6.5-6.7 16.1-10 25.2-8.3 39.8 5.5 75.3-24.4 75.3-63.7 0-8.8-1.9-17.6-5.6-26.1-3.6-8.2-3.2-17.6 1-25.5 4.2-7.8 11.8-13.4 20.7-14.9 38.3-6.7 66.1-39.6 66.1-78.3 0-23.1-10.4-45-28.4-60.3-11-9.3-13.6-25.1-6.1-37.4 8.5-14.1 22.4-29.7 37.2-46.2 10.4-11.6 27.6-31 35.8-43.9-14.4-1.3-44.4 4.4-76.4 27.5-8.3 5.9-19 7.2-28.3 3.3-9.4-3.9-16-12.4-17.5-22.4-7.8-50.9-52.3-89.3-103.3-89.3-13 0-25.6 2.3-37.5 6.9-13 5-27.7 0.1-35.1-11.6-19.5-30.7-52.5-49-88.4-49-36 0-69 18.3-88.4 49-7.4 11.8-22.1 16.7-35.1 11.6-12-4.6-24.6-6.9-37.6-6.9-51.1 0-95.5 38.3-103.3 89.2-1.5 10.1-8.2 18.6-17.5 22.5-9.4 3.9-20.1 2.6-28.3-3.3-32.6-23.5-63-28.8-77.2-27.4 8.3 12.8 25.6 31.9 35.9 43.4 15 16.7 29.3 32.4 37.9 46.7 7.5 12.3 4.8 28.2-6.1 37.4-18.1 15.2-28.4 37.2-28.4 60.3 0 38.7 27.8 71.6 66.1 78.3 8.8 1.5 16.5 7.1 20.7 15 4.2 7.9 4.6 17.3 0.9 25.5-3.8 8.4-5.6 17.2-5.6 26 0 39.3 37.6 69.4 75.3 63.7 9.2-1.6 18.6 1.6 25.1 8.2 6.6 6.6 9.6 16 8.1 25.2-0.6 3.4-1.1 6.7-1.1 10.2 0 35.7 29 64.8 64.8 64.8 30.8 0 53.8-12.2 61.6-32.7 8.2-22.7 25-25.2 31.8-25.2z" p-id="31313" fill="#d81e06"></path><path d="M670.7 484.7c-35.8-1.3-64.6-26.2-73.6-59.4-9.5 4-20 6.3-30.9 6.3-20.8 0-39.4-8.4-53.7-21.4-14.3 13-32.9 21.4-53.7 21.4-11 0-21.4-2.3-31-6.3-9 33.3-37.8 58.2-73.6 59.5-1.5 8.9-2.8 18-2.8 27.3 0 88.9 72.1 214.7 161 214.7s161-125.8 161-214.7c0.1-9.5-1.1-18.5-2.7-27.4z m-238.7 81c-14.8 0-26.8-12-26.8-26.8s12-26.8 26.8-26.8 26.8 12 26.8 26.8-12 26.8-26.8 26.8z m161 0c-14.8 0-26.8-12-26.8-26.8s12-26.8 26.8-26.8 26.8 12 26.8 26.8-12 26.8-26.8 26.8z" p-id="31314" fill="#d81e06"></path></svg>